<svg width="70" height="70" viewBox="0 0 70 70" fill="none" xmlns="http://www.w3.org/2000/svg">
<g clip-path="url(#clip0_18_3243)">
<path d="M61.7325 22H0V57.1067C0 62.018 3.54385 66 7.91537 66H61.7325C62.4324 66 63 65.3623 63 64.5755V23.424C63 22.6372 62.4324 22 61.7325 22Z" fill="#EFF2F3"/>
<path d="M69.9998 23.7987V64.4971C69.9998 65.2747 69.3691 65.9054 68.5915 65.9054H65.0405C65.8181 65.9054 66.4488 65.2747 66.4488 64.4971V23.7987C66.4488 23.0195 65.8181 22.3899 65.0405 22.3899H68.5915C69.3691 22.3899 69.9998 23.0195 69.9998 23.7987Z" fill="#EFF2F3"/>
<path d="M12.3741 46.3487C12.3741 47.1269 11.7439 47.757 10.9658 47.757H8.79433C3.93761 47.757 0 51.6946 0 56.5519V13.0331C0 8.17589 3.93761 4.23828 8.79486 4.23828H10.9658C11.7434 4.23828 12.3741 4.869 12.3741 5.64659V46.3487Z" fill="#9A2C31"/>
<path d="M63.4321 40.6081C63.4321 36.1289 59.7882 32.4856 55.3096 32.4856C50.9944 32.4856 47.4557 35.8678 47.2026 40.1205H42.34C41.7568 40.1205 41.2842 40.5931 41.2842 41.1768V53.2433C41.2842 53.8265 41.7568 54.2997 42.34 54.2997H54.4065C54.9902 54.2997 55.4629 53.8265 55.4629 53.2433V48.7268C59.871 48.6446 63.4321 45.0354 63.4321 40.6081ZM55.3096 34.5978C58.6234 34.5978 61.3194 37.2943 61.3194 40.6081C61.3194 43.8706 58.7062 46.5324 55.4629 46.6141V41.1768C55.4629 40.5931 54.9902 40.1205 54.4065 40.1205H49.3207C49.5701 37.0342 52.1597 34.5978 55.3096 34.5978ZM53.3501 46.2888C51.5002 45.6485 50.0577 44.1297 49.5242 42.2332H53.3501V46.2888ZM43.3964 52.187V42.2332H47.35C47.9749 45.2982 50.3322 47.7404 53.3501 48.4908V52.187H43.3964Z" fill="#9A2C31"/>
<path d="M61.5835 49.4602H59.2336C58.6504 49.4602 58.1772 49.9334 58.1772 50.5166C58.1772 51.1003 58.6504 51.5729 59.2336 51.5729H61.5835C62.1672 51.5729 62.6398 51.1003 62.6398 50.5166C62.6398 49.9334 62.1672 49.4602 61.5835 49.4602Z" fill="#9A2C31"/>
<path d="M61.5835 52.187H59.2336C58.6504 52.187 58.1772 52.6597 58.1772 53.2434C58.1772 53.8266 58.6504 54.2992 59.2336 54.2992H61.5835C62.1672 54.2992 62.6398 53.8266 62.6398 53.2434C62.6398 52.6597 62.1672 52.187 61.5835 52.187Z" fill="#9A2C31"/>
<path d="M18.2389 32.0649H19.9292C20.5124 32.0649 20.9856 31.5917 20.9856 31.0085C20.9856 30.4253 20.5124 29.9521 19.9292 29.9521H18.2389C17.6557 29.9521 17.1831 30.4253 17.1831 31.0085C17.1831 31.5917 17.6557 32.0649 18.2389 32.0649Z" fill="#9A2C31"/>
<path d="M18.2389 35.142H26.3935C26.9767 35.142 27.4498 34.6693 27.4498 34.0856C27.4498 33.5024 26.9767 33.0298 26.3935 33.0298H18.2389C17.6557 33.0298 17.1831 33.5024 17.1831 34.0856C17.1831 34.6693 17.6557 35.142 18.2389 35.142Z" fill="#9A2C31"/>
<path d="M24.7033 32.0649H26.3936C26.9768 32.0649 27.45 31.5917 27.45 31.0085C27.45 30.4253 26.9768 29.9521 26.3936 29.9521H24.7033C24.1201 29.9521 23.6475 30.4253 23.6475 31.0085C23.6475 31.5917 24.1201 32.0649 24.7033 32.0649Z" fill="#9A2C31"/>
<path d="M31.1677 32.0649H32.858C33.4412 32.0649 33.9144 31.5917 33.9144 31.0085C33.9144 30.4253 33.4412 29.9521 32.858 29.9521H31.1677C30.5845 29.9521 30.1113 30.4253 30.1113 31.0085C30.1113 31.5917 30.5845 32.0649 31.1677 32.0649Z" fill="#9A2C31"/>
<path d="M18.2389 38.197H26.3935C26.9767 38.197 27.4498 37.7238 27.4498 37.1406C27.4498 36.5569 26.9767 36.0842 26.3935 36.0842H18.2389C17.6557 36.0842 17.1831 36.5569 17.1831 37.1406C17.1831 37.7238 17.6557 38.197 18.2389 38.197Z" fill="#9A2C31"/>
<path d="M18.2389 41.2512H31.1674C31.7506 41.2512 32.2238 40.778 32.2238 40.1948C32.2238 39.6116 31.7506 39.1384 31.1674 39.1384H18.2389C17.6557 39.1384 17.1831 39.6116 17.1831 40.1948C17.1831 40.778 17.6557 41.2512 18.2389 41.2512Z" fill="#9A2C31"/>
<path d="M18.2389 44.3054H32.8577C33.4409 44.3054 33.9141 43.8327 33.9141 43.249C33.9141 42.6658 33.4409 42.1926 32.8577 42.1926H18.2389C17.6557 42.1926 17.1831 42.6658 17.1831 43.249C17.1831 43.8327 17.6557 44.3054 18.2389 44.3054Z" fill="#9A2C31"/>
<path d="M21.1501 47.114H18.2395C17.6557 47.114 17.1831 47.5867 17.1831 48.1704V51.081C17.1831 51.6647 17.6557 52.1374 18.2395 52.1374H21.1501C21.7333 52.1374 22.2065 51.6642 22.2065 51.081V48.1704C22.2065 47.5867 21.7333 47.114 21.1501 47.114ZM20.0937 50.0246H19.2953V49.2267H20.0937V50.0246Z" fill="#9A2C31"/>
<path d="M28.134 47.114H25.2234C24.6402 47.114 24.167 47.5867 24.167 48.1704V51.081C24.167 51.6647 24.6402 52.1374 25.2234 52.1374H28.134C28.7177 52.1374 29.1903 51.6642 29.1903 51.081V48.1704C29.1903 47.5867 28.7177 47.114 28.134 47.114ZM27.0776 50.0246H26.2797V49.2267H27.0776V50.0246Z" fill="#9A2C31"/>
<path d="M35.1183 47.114H32.2072C31.624 47.114 31.1514 47.5867 31.1514 48.1704V51.081C31.1514 51.6647 31.624 52.1374 32.2072 52.1374H35.1183C35.7015 52.1374 36.1747 51.6642 36.1747 51.081V48.1704C36.1747 47.5867 35.7015 47.114 35.1183 47.114ZM34.062 50.0246H33.2641V49.2267H34.062V50.0246Z" fill="#9A2C31"/>
<path d="M21.1501 54.5315H18.2395C17.6557 54.5315 17.1831 55.0047 17.1831 55.5879V58.499C17.1831 59.0822 17.6557 59.5554 18.2395 59.5554H21.1501C21.7333 59.5554 22.2065 59.0822 22.2065 58.499V55.5879C22.2065 55.0047 21.7333 54.5315 21.1501 54.5315ZM20.0937 57.4426H19.2953V56.6442H20.0937V57.4426Z" fill="#9A2C31"/>
<path d="M28.134 54.5315H25.2234C24.6402 54.5315 24.167 55.0047 24.167 55.5879V58.499C24.167 59.0822 24.6402 59.5554 25.2234 59.5554H28.134C28.7177 59.5554 29.1903 59.0822 29.1903 58.499V55.5879C29.1903 55.0047 28.7177 54.5315 28.134 54.5315ZM27.0776 57.4426H26.2797V56.6442H27.0776V57.4426Z" fill="#9A2C31"/>
<path d="M35.1183 54.5315H32.2072C31.624 54.5315 31.1514 55.0047 31.1514 55.5879V58.499C31.1514 59.0822 31.624 59.5554 32.2072 59.5554H35.1183C35.7015 59.5554 36.1747 59.0822 36.1747 58.499V55.5879C36.1747 55.0047 35.7015 54.5315 35.1183 54.5315ZM34.062 57.4426H33.2641V56.6442H34.062V57.4426Z" fill="#9A2C31"/>
<path d="M44.0818 33.6686L39.5466 35.9234C39.0403 36.1749 38.4875 35.6777 38.6835 35.1479L40.4401 30.3975L44.0818 33.6686Z" fill="#4E7693"/>
<path d="M45.057 33.3899L63.2598 13.1256C63.6438 12.6989 63.6091 12.0415 63.1813 11.657L60.2846 9.05503C59.8568 8.67105 59.1999 8.70683 58.8159 9.13407L40.6131 29.3984C40.2291 29.8261 40.2643 30.4825 40.6921 30.867L43.5883 33.4689C44.0166 33.8529 44.673 33.8182 45.057 33.3899Z" fill="#C0FF66"/>
<path d="M45.0566 33.3899L63.2594 13.1256C63.6434 12.6989 63.6087 12.0414 63.1809 11.6569L61.7326 10.356L42.1401 32.1679L43.588 33.4689C44.0163 33.8529 44.6726 33.8182 45.0566 33.3899Z" fill="#9BE058"/>
<path d="M61.2881 15.3205L63.2599 13.1261C63.6433 12.6988 63.6091 12.0414 63.1808 11.6574L60.2846 9.05549C59.8569 8.67096 59.1994 8.70675 58.816 9.13399L56.8442 11.329L61.2881 15.3205Z" fill="#FD82AC"/>
</g>
<defs>
<clipPath id="clip0_18_3243">
<rect width="70" height="70" fill="white"/>
</clipPath>
</defs>
</svg>
