<svg width="60" height="60" viewBox="0 0 60 60" fill="none" xmlns="http://www.w3.org/2000/svg">
<path d="M53.6719 26.9531H6.32812C3.22152 26.9531 0.703125 29.4715 0.703125 32.5781V53.6719C0.703125 56.7785 3.22152 59.2969 6.32812 59.2969H53.6719C56.7785 59.2969 59.2969 56.7785 59.2969 53.6719V32.5781C59.2969 29.4715 56.7785 26.9531 53.6719 26.9531Z" fill="#9A2C31"/>
<path d="M55.0781 52.2656V33.9844C55.0781 32.4311 53.8189 31.1719 52.2656 31.1719H7.73438C6.18107 31.1719 4.92188 32.4311 4.92188 33.9844V52.2656C4.92188 53.8189 6.18107 55.0781 7.73438 55.0781H52.2656C53.8189 55.0781 55.0781 53.8189 55.0781 52.2656Z" fill="#ECEFF1"/>
<path d="M53.8492 5.17982L51.1975 7.83154C51.0651 7.96172 50.9599 8.11681 50.8878 8.28787C50.8157 8.45893 50.7781 8.64257 50.7774 8.8282C50.7766 9.01383 50.8126 9.19778 50.8832 9.36944C50.9539 9.5411 51.0579 9.69707 51.1891 9.82834C51.3204 9.95962 51.4763 10.0636 51.6479 10.1343C51.8196 10.205 52.0035 10.2411 52.1892 10.2403C52.3748 10.2396 52.5584 10.2021 52.7295 10.1301C52.9006 10.058 53.0557 9.95276 53.1859 9.82045L55.8376 7.16873C56.0978 6.90431 56.243 6.54779 56.2416 6.17681C56.2401 5.80584 56.0921 5.45047 55.8298 5.18812C55.5675 4.92577 55.2122 4.77769 54.8412 4.77614C54.4702 4.77458 54.1137 4.91968 53.8492 5.17982Z" fill="#FFB300"/>
<path d="M53.8492 22.008L51.1975 19.3563C51.0651 19.2261 50.9599 19.071 50.8878 18.9C50.8157 18.7289 50.7781 18.5453 50.7774 18.3597C50.7766 18.174 50.8126 17.9901 50.8832 17.8184C50.9539 17.6468 51.0579 17.4908 51.1891 17.3595C51.3204 17.2282 51.4763 17.1242 51.6479 17.0535C51.8196 16.9828 52.0035 16.9468 52.1892 16.9475C52.3748 16.9483 52.5584 16.9857 52.7295 17.0578C52.9006 17.1299 53.0557 17.2351 53.1859 17.3674L55.8376 20.0191C55.97 20.1493 56.0752 20.3044 56.1473 20.4754C56.2194 20.6465 56.257 20.8301 56.2577 21.0158C56.2585 21.2014 56.2225 21.3854 56.1519 21.557C56.0812 21.7287 55.9772 21.8846 55.846 22.0159C55.7147 22.1472 55.5588 22.2512 55.3872 22.3219C55.2155 22.3926 55.0316 22.4286 54.8459 22.4279C54.6603 22.4272 54.4767 22.3897 54.3056 22.3176C54.1345 22.2456 53.9794 22.1403 53.8492 22.008Z" fill="#FFB300"/>
<path d="M6.15027 5.1799L8.80199 7.83162C9.06219 8.09604 9.20738 8.45256 9.20591 8.82354C9.20444 9.19451 9.05644 9.54988 8.79416 9.81223C8.53187 10.0746 8.17653 10.2227 7.80556 10.2242C7.43459 10.2258 7.07803 10.0807 6.81355 9.82053L4.16183 7.16881C4.02948 7.03863 3.92422 6.88354 3.85212 6.71249C3.78001 6.54143 3.74249 6.35778 3.74171 6.17215C3.74093 5.98652 3.77692 5.80257 3.84759 5.63091C3.91826 5.45925 4.02222 5.30329 4.15346 5.17201C4.28471 5.04073 4.44065 4.93673 4.61229 4.86602C4.78393 4.79531 4.96788 4.75929 5.15351 4.76002C5.33914 4.76075 5.52279 4.79824 5.69387 4.8703C5.86495 4.94237 6.02006 5.04759 6.15027 5.1799Z" fill="#FFB300"/>
<path d="M6.15027 22.008L8.80198 19.3563C8.93433 19.2261 9.03959 19.071 9.11169 18.9C9.1838 18.7289 9.22132 18.5453 9.2221 18.3597C9.22288 18.174 9.18689 17.9901 9.11622 17.8184C9.04556 17.6468 8.9416 17.4908 8.81035 17.3595C8.6791 17.2282 8.52316 17.1242 8.35152 17.0535C8.17988 16.9828 7.99594 16.9468 7.8103 16.9475C7.62467 16.9483 7.44102 16.9857 7.26994 17.0578C7.09887 17.1299 6.94375 17.2351 6.81355 17.3674L4.16183 20.0191C4.02948 20.1493 3.92422 20.3044 3.85212 20.4754C3.78001 20.6465 3.74249 20.8301 3.74171 21.0158C3.74093 21.2014 3.77692 21.3854 3.84759 21.557C3.91826 21.7287 4.02222 21.8846 4.15346 22.0159C4.28471 22.1472 4.44065 22.2512 4.61229 22.3219C4.78393 22.3926 4.96788 22.4286 5.15351 22.4279C5.33914 22.4272 5.52279 22.3897 5.69387 22.3176C5.86494 22.2456 6.02006 22.1403 6.15027 22.008Z" fill="#FFB300"/>
<path d="M32.3955 3.42668L35.9529 9.20871C36.342 9.84121 36.9655 10.2942 37.6873 10.4687L44.2849 12.0625C44.7519 12.1754 45.1822 12.406 45.5347 12.7324C45.8873 13.0588 46.1503 13.4701 46.2988 13.927C46.4473 14.3839 46.4762 14.8712 46.3829 15.3425C46.2896 15.8138 46.0771 16.2533 45.7657 16.6192L41.3646 21.79C40.8833 22.3555 40.6452 23.0885 40.7023 23.829L41.2235 30.5968C41.2604 31.0758 41.174 31.5563 40.9725 31.9924C40.771 32.4286 40.4612 32.8058 40.0725 33.0882C39.6838 33.3706 39.2293 33.5487 38.7523 33.6056C38.2752 33.6625 37.7916 33.5962 37.3474 33.4131L31.0718 30.8256C30.3851 30.5425 29.6144 30.5425 28.9277 30.8256L22.6521 33.4131C22.2079 33.5962 21.7243 33.6625 21.2472 33.6056C20.7702 33.5487 20.3157 33.3706 19.927 33.0882C19.5384 32.8058 19.2285 32.4286 19.027 31.9924C18.8255 31.5563 18.7391 31.0758 18.776 30.5968L19.2973 23.829C19.3544 23.0885 19.1163 22.3555 18.6349 21.79L14.2348 16.6211C13.9234 16.2552 13.7109 15.8157 13.6175 15.3444C13.5242 14.8731 13.5532 14.3858 13.7017 13.9289C13.8501 13.4719 14.1132 13.0607 14.4657 12.7343C14.8183 12.4079 15.2486 12.1772 15.7155 12.0643L22.3132 10.4706C23.035 10.296 23.6585 9.84308 24.0476 9.21059L27.604 3.42668C27.8557 3.01739 28.208 2.6794 28.6274 2.44495C29.0468 2.2105 29.5193 2.0874 29.9998 2.0874C30.4802 2.0874 30.9527 2.2105 31.3721 2.44495C31.7915 2.6794 32.1439 3.01739 32.3955 3.42668Z" fill="#FFB300"/>
<path d="M36.6937 10.0079L30 19.2235V2.08598C30.4811 2.08334 30.9546 2.20546 31.3744 2.44043C31.7943 2.67539 32.146 3.01517 32.3953 3.4266L35.9531 9.20629C36.1455 9.51913 36.3971 9.79141 36.6937 10.0079Z" fill="#FFA000"/>
<path d="M29.9999 19.2234L19.9265 33.0843C19.5366 32.8038 19.2259 32.4271 19.0246 31.9909C18.8234 31.5548 18.7384 31.074 18.778 30.5953L19.2983 23.8265C19.3257 23.4605 19.2811 23.0926 19.1671 22.7437L29.9999 19.2234Z" fill="#FFA000"/>
<path d="M45.7641 16.6218L41.3672 21.7875C41.1286 22.0684 40.947 22.3932 40.8328 22.7437L30 19.2234L46.2938 13.9265C46.4463 14.3832 46.4777 14.8717 46.3849 15.3441C46.292 15.8166 46.0781 16.2569 45.7641 16.6218Z" fill="#FFA000"/>
<path d="M23.3061 10.0078L29.9998 19.2234L13.7061 13.9266C13.8514 13.4688 14.1132 13.0567 14.4657 12.7304C14.8182 12.4042 15.2494 12.1752 15.717 12.0656L22.3123 10.4672C22.6703 10.3802 23.0078 10.2241 23.3061 10.0078Z" fill="#FFA000"/>
<path d="M40.0688 33.0843C39.6822 33.3705 39.2279 33.5512 38.7504 33.6087C38.273 33.6662 37.7887 33.5986 37.3453 33.4125L31.0734 30.825C30.7328 30.6854 30.3681 30.6137 30 30.614V19.2234L40.0688 33.0843Z" fill="#FFA000"/>
<path d="M27.4219 48.5156C27.6084 48.5156 27.7872 48.4415 27.9191 48.3097C28.0509 48.1778 28.125 47.999 28.125 47.8125V44.2969H31.875V47.8125C31.875 47.999 31.9491 48.1778 32.0809 48.3097C32.2128 48.4415 32.3916 48.5156 32.5781 48.5156C32.7646 48.5156 32.9434 48.4415 33.0753 48.3097C33.2072 48.1778 33.2812 47.999 33.2812 47.8125V41.0156C33.2812 40.1454 32.9355 39.3108 32.3202 38.6954C31.7048 38.0801 30.8702 37.7344 30 37.7344C29.1298 37.7344 28.2952 38.0801 27.6798 38.6954C27.0645 39.3108 26.7188 40.1454 26.7188 41.0156V47.8125C26.7188 47.999 26.7928 48.1778 26.9247 48.3097C27.0566 48.4415 27.2354 48.5156 27.4219 48.5156ZM28.125 41.0156C28.125 40.5183 28.3225 40.0414 28.6742 39.6898C29.0258 39.3382 29.5027 39.1406 30 39.1406C30.4973 39.1406 30.9742 39.3382 31.3258 39.6898C31.6775 40.0414 31.875 40.5183 31.875 41.0156V42.8906H28.125V41.0156Z" fill="#9A2C31"/>
<path d="M45.9375 48.5156H48.2011C49.0923 48.5146 49.9467 48.1602 50.5769 47.53C51.207 46.8998 51.5615 46.0454 51.5625 45.1542V41.0958C51.5615 40.2046 51.207 39.3502 50.5769 38.72C49.9467 38.0898 49.0923 37.7354 48.2011 37.7344H45.9375C45.5645 37.7344 45.2069 37.8825 44.9431 38.1463C44.6794 38.41 44.5312 38.7677 44.5312 39.1406V47.1094C44.5312 47.4823 44.6794 47.84 44.9431 48.1037C45.2069 48.3675 45.5645 48.5156 45.9375 48.5156ZM45.9375 39.1406H48.2011C48.7194 39.1412 49.2164 39.3474 49.5829 39.714C49.9494 40.0805 50.1556 40.5774 50.1562 41.0958V45.1542C50.1556 45.6726 49.9494 46.1695 49.5829 46.536C49.2164 46.9026 48.7194 47.1088 48.2011 47.1094H45.9375V39.1406Z" fill="#9A2C31"/>
<path d="M12.9956 37.7344H10.3125C9.93954 37.7344 9.58185 37.8825 9.31813 38.1463C9.05441 38.41 8.90625 38.7677 8.90625 39.1406V47.1094C8.90625 47.4823 9.05441 47.84 9.31813 48.1037C9.58185 48.3675 9.93954 48.5156 10.3125 48.5156H12.9956C13.7756 48.5148 14.5234 48.2045 15.0749 47.653C15.6264 47.1015 15.9366 46.3537 15.9375 45.5737V45.3638C15.9374 44.9376 15.8445 44.5165 15.6651 44.1299C15.4858 43.7433 15.2245 43.4004 14.8992 43.125C15.2245 42.8496 15.4858 42.5067 15.6651 42.1201C15.8445 41.7335 15.9374 41.3124 15.9375 40.8862V40.6763C15.9366 39.8963 15.6264 39.1485 15.0749 38.597C14.5234 38.0455 13.7756 37.7352 12.9956 37.7344ZM14.5312 45.5737C14.5308 45.9809 14.3688 46.3712 14.0809 46.6591C13.793 46.9469 13.4027 47.1089 12.9956 47.1094H10.3125V43.8281H12.9956C13.4027 43.8286 13.793 43.9906 14.0809 44.2784C14.3688 44.5663 14.5308 44.9566 14.5312 45.3638V45.5737ZM14.5312 40.8862C14.5308 41.2934 14.3688 41.6837 14.0809 41.9716C13.793 42.2594 13.4027 42.4214 12.9956 42.4219H10.3125V39.1406H12.9956C13.4027 39.1411 13.793 39.3031 14.0809 39.5909C14.3688 39.8788 14.5308 40.2691 14.5312 40.6763V40.8862Z" fill="#9A2C31"/>
<path d="M36.3281 48.5156C36.5146 48.5156 36.6934 48.4415 36.8253 48.3097C36.9572 48.1778 37.0312 47.999 37.0312 47.8125V40.8342L40.4062 47.887C40.4985 48.0776 40.6526 48.2313 40.8433 48.3231C41.034 48.4149 41.2502 48.4395 41.4567 48.3929C41.6632 48.3462 41.8478 48.231 41.9805 48.066C42.1132 47.9011 42.1862 47.6961 42.1875 47.4844V38.4375C42.1875 38.251 42.1134 38.0722 41.9816 37.9403C41.8497 37.8085 41.6709 37.7344 41.4844 37.7344C41.2979 37.7344 41.1191 37.8085 40.9872 37.9403C40.8553 38.0722 40.7812 38.251 40.7812 38.4375V45.4158L37.4063 38.363C37.314 38.1724 37.1599 38.0187 36.9692 37.9269C36.7785 37.8351 36.5623 37.8105 36.3558 37.8571C36.1493 37.9038 35.9647 38.019 35.832 38.184C35.6993 38.3489 35.6263 38.5539 35.625 38.7656V47.8125C35.625 47.999 35.6991 48.1778 35.8309 48.3097C35.9628 48.4415 36.1416 48.5156 36.3281 48.5156Z" fill="#9A2C31"/>
<path d="M17.8125 39.1406V47.8125C17.8125 47.999 17.8866 48.1778 18.0184 48.3097C18.1503 48.4415 18.3291 48.5156 18.5156 48.5156C18.7021 48.5156 18.8809 48.4415 19.0128 48.3097C19.1447 48.1778 19.2188 47.999 19.2188 47.8125V44.5012L23.4333 48.3328C23.5016 48.3949 23.5815 48.443 23.6684 48.4742C23.7553 48.5054 23.8475 48.5193 23.9397 48.5149C24.032 48.5105 24.1224 48.4879 24.206 48.4486C24.2895 48.4092 24.3645 48.3538 24.4266 48.2855C24.4887 48.2171 24.5367 48.1372 24.568 48.0504C24.5992 47.9635 24.613 47.8713 24.6086 47.779C24.6042 47.6868 24.5817 47.5963 24.5423 47.5128C24.503 47.4293 24.4475 47.3543 24.3792 47.2922L20.5688 43.8281H21.7969C22.605 43.8281 23.3799 43.5071 23.9513 42.9357C24.5227 42.3643 24.8438 41.5893 24.8438 40.7812C24.8438 39.9732 24.5227 39.1982 23.9513 38.6268C23.3799 38.0554 22.605 37.7344 21.7969 37.7344H19.2188C18.8458 37.7344 18.4881 37.8825 18.2244 38.1463C17.9607 38.41 17.8125 38.7677 17.8125 39.1406ZM19.2188 39.1406H21.7969C22.232 39.1406 22.6493 39.3135 22.957 39.6212C23.2646 39.9288 23.4375 40.3461 23.4375 40.7812C23.4375 41.2164 23.2646 41.6337 22.957 41.9413C22.6493 42.249 22.232 42.4219 21.7969 42.4219H19.2188V39.1406Z" fill="#9A2C31"/>
</svg>
