<svg width="65" height="65" viewBox="0 0 65 65" fill="none" xmlns="http://www.w3.org/2000/svg">
<path d="M35.5469 24.375C35.2775 24.375 35.0192 24.268 34.8287 24.0775C34.6383 23.8871 34.5312 23.6287 34.5312 23.3594V13.2031C34.5312 11.3176 33.7822 9.5093 32.449 8.17604C31.1157 6.84277 29.3074 6.09375 27.4219 6.09375C25.5364 6.09375 23.7281 6.84277 22.3948 8.17604C21.0615 9.5093 20.3125 11.3176 20.3125 13.2031V23.3594C20.3125 23.6287 20.2055 23.8871 20.015 24.0775C19.8246 24.268 19.5662 24.375 19.2969 24.375C19.0275 24.375 18.7692 24.268 18.5787 24.0775C18.3883 23.8871 18.2812 23.6287 18.2812 23.3594V13.2031C18.2813 10.7789 19.2443 8.45393 20.9585 6.73973C22.6727 5.02553 24.9976 4.0625 27.4219 4.0625C29.8461 4.0625 32.1711 5.02553 33.8853 6.73973C35.5995 8.45393 36.5625 10.7789 36.5625 13.2031V23.3594C36.5625 23.6287 36.4555 23.8871 36.265 24.0775C36.0746 24.268 35.8162 24.375 35.5469 24.375Z" fill="#DADCDE"/>
<path d="M37.5781 59.9219H3.04688L5.07812 19.2969H35.5469L37.5781 59.9219Z" fill="#9A2C31"/>
<path d="M45.7031 59.9219H37.5781L35.5469 19.2969H43.6719L45.7031 59.9219Z" fill="#9A2C31"/>
<path d="M41.7003 54.8425C41.68 54.8438 41.6597 54.8438 41.6394 54.8438C41.3805 54.8436 41.1314 54.7445 40.9431 54.5668C40.7548 54.3891 40.6415 54.1462 40.6263 53.8878L38.595 19.3565C38.5938 19.3362 38.5938 19.3172 38.5938 19.2969H40.6275L42.655 53.7685C42.6707 54.0375 42.579 54.3017 42.3999 54.5031C42.2209 54.7045 41.9693 54.8265 41.7003 54.8425Z" fill="#9A2C31"/>
<path d="M61.9531 59.9219H53.8281L53.7012 58.2804V58.2791L51.7969 33.5156H59.9219L61.7944 57.8513V57.8525L61.9531 59.9219Z" fill="#EBA72E"/>
<path d="M57.9922 54.8387C57.958 54.8423 57.9237 54.844 57.8894 54.8438C57.6378 54.8434 57.3953 54.7498 57.2089 54.5809C57.0224 54.412 56.9053 54.18 56.8801 53.9297L56.8433 53.5666L54.8488 33.6172C54.8453 33.5835 54.8436 33.5495 54.8438 33.5156H56.8801L58.8758 53.4739L58.9012 53.7266C58.9145 53.8593 58.9016 53.9933 58.8631 54.121C58.8247 54.2487 58.7614 54.3676 58.677 54.4709C58.5926 54.5741 58.4887 54.6598 58.3712 54.7229C58.2537 54.786 58.1249 54.8253 57.9922 54.8387Z" fill="#E09F2C"/>
<path d="M61.9531 59.9218H60.7318L57.8906 55.6588L55.0494 59.9218H53.8281L53.7012 58.2803V58.2791L56.8433 53.5666L57.0451 53.2644C57.138 53.1254 57.2638 53.0114 57.4113 52.9326C57.5588 52.8537 57.7234 52.8125 57.8906 52.8125C58.0579 52.8125 58.2225 52.8537 58.37 52.9326C58.5175 53.0114 58.6432 53.1254 58.7361 53.2644L58.8758 53.4739L61.7944 57.8512V57.8525L61.9531 59.9218Z" fill="#E09F2C"/>
<path d="M53.8281 59.9219H27.4219L29.4531 33.5156H51.7969L53.8281 59.9219Z" fill="#F7B030"/>
<path d="M41.6406 52.8125H39.6094C38.263 52.811 36.9723 52.2755 36.0203 51.3235C35.0683 50.3715 34.5328 49.0807 34.5312 47.7344V39.6094C34.5312 39.34 34.6383 39.0817 34.8287 38.8912C35.0192 38.7008 35.2775 38.5938 35.5469 38.5938C35.8162 38.5938 36.0746 38.7008 36.265 38.8912C36.4555 39.0817 36.5625 39.34 36.5625 39.6094V47.7344C36.5634 48.5422 36.8847 49.3166 37.4559 49.8878C38.0271 50.459 38.8016 50.7803 39.6094 50.7812H41.6406C42.4484 50.7803 43.2229 50.459 43.7941 49.8878C44.3653 49.3166 44.6866 48.5422 44.6875 47.7344V39.6094C44.6875 39.34 44.7945 39.0817 44.985 38.8912C45.1754 38.7008 45.4338 38.5938 45.7031 38.5938C45.9725 38.5938 46.2308 38.7008 46.4213 38.8912C46.6117 39.0817 46.7188 39.34 46.7188 39.6094V47.7344C46.7172 49.0807 46.1817 50.3715 45.2297 51.3235C44.2777 52.2755 42.987 52.811 41.6406 52.8125Z" fill="#E9EEF2"/>
<path d="M12.1875 23.3594H14.2188V29.4531H12.1875V23.3594Z" fill="#DADCDE"/>
<path d="M13.2031 24.375C12.9338 24.375 12.6754 24.268 12.485 24.0775C12.2945 23.8871 12.1875 23.6287 12.1875 23.3594V13.2031C12.1875 10.7789 13.1505 8.45393 14.8647 6.73973C16.5789 5.02553 18.9039 4.0625 21.3281 4.0625C23.7524 4.0625 26.0773 5.02553 27.7915 6.73973C29.5057 8.45393 30.4688 10.7789 30.4688 13.2031V23.3594C30.4688 23.6287 30.3617 23.8871 30.1713 24.0775C29.9808 24.268 29.7225 24.375 29.4531 24.375C29.1838 24.375 28.9254 24.268 28.735 24.0775C28.5445 23.8871 28.4375 23.6287 28.4375 23.3594V13.2031C28.4375 11.3176 27.6885 9.5093 26.3552 8.17604C25.0219 6.84277 23.2136 6.09375 21.3281 6.09375C19.4426 6.09375 17.6343 6.84277 16.301 8.17604C14.9678 9.5093 14.2188 11.3176 14.2188 13.2031V23.3594C14.2188 23.6287 14.1117 23.8871 13.9213 24.0775C13.7308 24.268 13.4725 24.375 13.2031 24.375Z" fill="#E9EEF2"/>
<path d="M16.25 37.5781H10.1562V29.4531L13.2031 27.4219L16.25 29.4531V37.5781Z" fill="#F7B030"/>
</svg>
