<svg width="30" height="31" viewBox="0 0 30 31" fill="none" xmlns="http://www.w3.org/2000/svg">
<g clip-path="url(#clip0_3_5086)">
<path d="M1.10012 12.8874L5.93762 7.99988C6.05382 7.88272 6.19207 7.78973 6.3444 7.72627C6.49672 7.66281 6.6601 7.63013 6.82512 7.63013C6.99013 7.63013 7.15352 7.66281 7.30584 7.72627C7.45816 7.78973 7.59642 7.88272 7.71262 7.99988C7.82978 8.11608 7.92277 8.25434 7.98623 8.40666C8.04969 8.55899 8.08237 8.72237 8.08237 8.88738C8.08237 9.05239 8.04969 9.21578 7.98623 9.3681C7.92277 9.52042 7.82978 9.65868 7.71262 9.77488L3.26262 14.2499H28.7501C29.0816 14.2499 29.3996 14.3816 29.634 14.616C29.8684 14.8504 30.0001 15.1684 30.0001 15.4999C30.0001 15.8314 29.8684 16.1493 29.634 16.3838C29.3996 16.6182 29.0816 16.7499 28.7501 16.7499H3.18762L7.71262 21.2749C7.93423 21.5074 8.05786 21.8162 8.05786 22.1374C8.05786 22.4586 7.93423 22.7674 7.71262 22.9999C7.59642 23.117 7.45816 23.21 7.30584 23.2735C7.15352 23.337 6.99013 23.3696 6.82512 23.3696C6.6601 23.3696 6.49672 23.337 6.3444 23.2735C6.19207 23.21 6.05382 23.117 5.93762 22.9999L1.10012 18.1874C0.397866 17.4843 0.00341797 16.5311 0.00341797 15.5374C0.00341797 14.5436 0.397866 13.5905 1.10012 12.8874Z" fill="white"/>
</g>
<defs>
<clipPath id="clip0_3_5086">
<rect width="30" height="30" fill="white" transform="matrix(1 0 0 -1 0 30.5)"/>
</clipPath>
</defs>
</svg>
