<svg width="17" height="33" viewBox="0 0 17 33" fill="none" xmlns="http://www.w3.org/2000/svg">
<path d="M14.6668 0.656166C14.8422 0.655151 15.0162 0.688784 15.1786 0.755136C15.3411 0.821489 15.4888 0.919258 15.6134 1.04283C15.7384 1.16678 15.8376 1.31425 15.9053 1.47673C15.973 1.63921 16.0078 1.81348 16.0078 1.9895C16.0078 2.16551 15.973 2.33979 15.9053 2.50227C15.8376 2.66475 15.7384 2.81221 15.6134 2.93616L4.72008 13.8295C3.97101 14.5795 3.55027 15.5962 3.55027 16.6562C3.55027 17.7162 3.97101 18.7328 4.72008 19.4828L15.6134 30.3762C15.8645 30.6272 16.0055 30.9678 16.0055 31.3228C16.0055 31.6779 15.8645 32.0184 15.6134 32.2695C15.3623 32.5206 15.0218 32.6616 14.6667 32.6616C14.3117 32.6616 13.9712 32.5206 13.7201 32.2695L2.82675 21.3762C2.20591 20.7569 1.71334 20.0212 1.37725 19.2113C1.04116 18.4013 0.868165 17.5331 0.868165 16.6562C0.868166 15.7793 1.04116 14.911 1.37725 14.1011C1.71334 13.2911 2.20591 12.5554 2.82675 11.9362L13.7201 1.04283C13.8447 0.919258 13.9924 0.821489 14.1549 0.755136C14.3173 0.688783 14.4913 0.655151 14.6668 0.656166Z" fill="white"/>
</svg>
