<svg width="30" height="12" viewBox="0 0 30 12" fill="none" xmlns="http://www.w3.org/2000/svg">
<path d="M14.8857 11.3306C14.537 11.3284 14.2031 11.2304 13.9545 11.0571L0.78378 1.72171C0.543865 1.54565 0.411111 1.30983 0.414112 1.06507C0.417113 0.820295 0.555628 0.586153 0.799824 0.413068C1.04402 0.239983 1.37436 0.141804 1.71969 0.139677C2.06502 0.13755 2.39772 0.231646 2.64612 0.401697L14.8857 9.07704L27.1252 0.401697C27.2467 0.312534 27.3921 0.241416 27.5528 0.19249C27.7134 0.143564 27.8863 0.117812 28.0612 0.116734C28.236 0.115657 28.4095 0.139277 28.5713 0.186216C28.7332 0.233155 28.8802 0.302473 29.0039 0.390125C29.1276 0.477777 29.2254 0.582008 29.2916 0.696736C29.3578 0.811464 29.3911 0.934392 29.3896 1.05835C29.3881 1.1823 29.3518 1.3048 29.2827 1.41869C29.2137 1.53259 29.1134 1.6356 28.9876 1.72171L15.8169 11.0571C15.5682 11.2304 15.2344 11.3284 14.8857 11.3306Z" fill="#2F2F2F" fill-opacity="0.6"/>
</svg>
