<svg width="22" height="12" viewBox="0 0 22 12" fill="none" xmlns="http://www.w3.org/2000/svg">
<path d="M10.9877 12C10.723 11.9977 10.4695 11.8927 10.2807 11.7073L0.280712 1.71753C0.0985537 1.52912 -0.00224062 1.27678 3.78026e-05 1.01485C0.00231622 0.752919 0.107485 0.502363 0.292893 0.317145C0.478301 0.131926 0.729114 0.0268649 0.99131 0.0245888C1.25351 0.0223127 1.50611 0.123004 1.69471 0.304976L10.9877 9.58847L20.2807 0.304976C20.373 0.209564 20.4833 0.133459 20.6053 0.0811038C20.7273 0.0287484 20.8585 0.00119035 20.9913 3.77184e-05C21.1241 -0.00111492 21.2558 0.0241607 21.3787 0.0743901C21.5016 0.12462 21.6132 0.198797 21.7071 0.292593C21.801 0.38639 21.8753 0.497928 21.9255 0.620699C21.9758 0.743469 22.0011 0.875014 22 1.00766C21.9988 1.1403 21.9712 1.27139 21.9188 1.39327C21.8664 1.51515 21.7902 1.62538 21.6947 1.71753L11.6947 11.7073C11.5059 11.8927 11.2525 11.9977 10.9877 12Z" fill="white"/>
</svg>
