<svg width="160" height="12" viewBox="0 0 160 12" fill="none" xmlns="http://www.w3.org/2000/svg">
<path d="M3.22508 3.32381C3.92349 0.672842 6.44651 0.0672906 9.06461 0.0672906H13.9278C14.1503 0.0654938 14.3644 0.14484 14.5234 0.287962C14.6824 0.431085 14.7733 0.626328 14.7762 0.830958V11.1691C14.7733 11.3737 14.6824 11.5689 14.5234 11.7121C14.3644 11.8552 14.1503 11.9345 13.9278 11.9327H0.848321C0.624216 11.9301 0.41009 11.847 0.251611 11.7012C0.0931324 11.5554 0.00284311 11.3584 0 11.1522L0 10.3583C0.00289274 10.1537 0.0937792 9.95842 0.252767 9.8153C0.411756 9.67217 0.625896 9.59283 0.848321 9.59463H1.54672L3.22508 3.32381ZM5.00948 9.59463H11.3865V2.40539H8.69529C8.18002 2.38973 7.67603 2.54641 7.27668 2.84641C6.87733 3.1464 6.60968 3.56939 6.5233 4.03701L5.00948 9.59463Z" fill="#9A2C31"/>
<path d="M17.354 0.847742C17.354 0.640744 17.4434 0.442224 17.6025 0.295854C17.7616 0.149484 17.9773 0.0672543 18.2023 0.0672543H19.877C19.9898 0.0654715 20.1019 0.0843183 20.2067 0.122701C20.3115 0.161084 20.407 0.218238 20.4876 0.290846C20.5683 0.363455 20.6324 0.450072 20.6764 0.545671C20.7203 0.64127 20.7432 0.743947 20.7436 0.847742V11.1522C20.7398 11.361 20.6467 11.56 20.4845 11.7061C20.3223 11.8522 20.104 11.9336 19.877 11.9327H18.2023C17.9799 11.9345 17.7658 11.8551 17.6068 11.712C17.4478 11.5689 17.3569 11.3737 17.354 11.169V0.847742Z" fill="#9A2C31"/>
<path d="M30.9125 11.9327C30.6716 11.9165 30.4406 11.8377 30.2464 11.7055C30.0522 11.5733 29.9028 11.3931 29.8155 11.1858L26.638 3.05128V11.1253C26.6399 11.2291 26.6194 11.3322 26.5777 11.4286C26.536 11.5251 26.4739 11.6129 26.395 11.6871C26.316 11.7613 26.2219 11.8203 26.118 11.8607C26.0141 11.9011 25.9025 11.9222 25.7897 11.9226H24.1698C24.057 11.9222 23.9454 11.9011 23.8415 11.8607C23.7376 11.8203 23.6434 11.7613 23.5645 11.6871C23.4856 11.6129 23.4235 11.5251 23.3818 11.4286C23.34 11.3322 23.3196 11.2291 23.3215 11.1253V0.864569C23.3191 0.762068 23.3386 0.660131 23.379 0.564582C23.4194 0.469033 23.4799 0.381744 23.557 0.307703C23.6341 0.233661 23.7262 0.174317 23.8283 0.133061C23.9303 0.0918052 24.0401 0.069446 24.1515 0.0672607H27.8081C28.0554 0.079679 28.2927 0.160977 28.4886 0.300371C28.6846 0.439764 28.8298 0.630665 28.9051 0.847749L31.5561 7.91251L34.2107 0.847749C34.286 0.630665 34.4312 0.439764 34.6271 0.300371C34.823 0.160977 35.0604 0.079679 35.3077 0.0672607H38.9642C39.0757 0.069446 39.1855 0.0918052 39.2875 0.133061C39.3895 0.174317 39.4817 0.233661 39.5588 0.307703C39.6359 0.381744 39.6964 0.469033 39.7368 0.564582C39.7772 0.660131 39.7967 0.762068 39.7943 0.864569V11.1354C39.7962 11.2392 39.7757 11.3423 39.734 11.4387C39.6923 11.5351 39.6302 11.623 39.5513 11.6972C39.4723 11.7713 39.3782 11.8304 39.2743 11.8708C39.1704 11.9112 39.0588 11.9323 38.946 11.9327H37.3224C37.2098 11.9323 37.0984 11.9112 36.9947 11.8707C36.891 11.8303 36.797 11.7712 36.7184 11.697C36.6398 11.6228 36.578 11.5349 36.5367 11.4385C36.4954 11.342 36.4754 11.239 36.4778 11.1354V3.06137L33.3075 11.1858C33.2203 11.3931 33.0709 11.5733 32.8767 11.7055C32.6825 11.8377 32.4515 11.9165 32.2106 11.9327H30.9125Z" fill="#9A2C31"/>
<path d="M48.8188 0.847742C48.8188 0.745247 48.8408 0.643756 48.8834 0.549062C48.9261 0.454369 48.9885 0.368329 49.0673 0.295854C49.1461 0.223379 49.2396 0.165889 49.3425 0.126665C49.4455 0.0874422 49.5558 0.0672543 49.6672 0.0672543H51.3419C51.4547 0.0654715 51.5667 0.0843183 51.6716 0.122701C51.7764 0.161084 51.8719 0.218238 51.9525 0.290846C52.0331 0.363455 52.0973 0.450072 52.1412 0.545671C52.1851 0.64127 52.208 0.743947 52.2085 0.847742V11.1522C52.2046 11.361 52.1115 11.56 51.9493 11.7061C51.7871 11.8522 51.5689 11.9336 51.3419 11.9327H49.6672C49.4447 11.9345 49.2306 11.8551 49.0716 11.712C48.9126 11.5689 48.8217 11.3737 48.8188 11.169V0.847742Z" fill="#9A2C31"/>
<path d="M64.3553 6.91671H58.1758V11.169C58.1729 11.3731 58.0825 11.5678 57.9243 11.7108C57.7661 11.8539 57.5529 11.9336 57.3311 11.9327H55.6527C55.4257 11.9336 55.2075 11.8522 55.0453 11.7061C54.8831 11.56 54.79 11.361 54.7861 11.1522V0.847743C54.7866 0.743947 54.8095 0.64127 54.8534 0.545671C54.8974 0.450073 54.9615 0.363455 55.0421 0.290847C55.1227 0.218238 55.2182 0.161084 55.3231 0.122701C55.4279 0.0843187 55.5399 0.0654719 55.6527 0.0672547H57.3311C57.4423 0.0672537 57.5525 0.0874656 57.6552 0.12673C57.7579 0.165994 57.8512 0.223538 57.9297 0.296057C58.0081 0.368576 58.0703 0.454643 58.1125 0.549317C58.1548 0.643991 58.1762 0.745406 58.1758 0.847743V4.57524H64.3553V0.847743C64.3553 0.744393 64.3776 0.64207 64.421 0.546713C64.4643 0.451356 64.5277 0.364864 64.6077 0.292255C64.6876 0.219647 64.7824 0.162368 64.8866 0.123744C64.9908 0.0851194 65.1023 0.0659183 65.2146 0.0672547H66.893C67.0056 0.0654678 67.1175 0.0843361 67.2221 0.122758C67.3267 0.161181 67.422 0.218388 67.5023 0.291042C67.5827 0.363695 67.6465 0.450341 67.69 0.545922C67.7335 0.641503 67.756 0.744105 67.7559 0.847743V11.1522C67.7531 11.3607 67.6607 11.5597 67.4991 11.7059C67.3375 11.8521 67.1196 11.9336 66.893 11.9327H65.2146C65.1036 11.9349 64.9931 11.9169 64.8897 11.8796C64.7863 11.8424 64.6919 11.7866 64.612 11.7156C64.5321 11.6446 64.4683 11.5598 64.4242 11.4659C64.3802 11.3721 64.3568 11.2712 64.3553 11.169V6.91671Z" fill="#9A2C31"/>
<path d="M81.5008 0.0673287C81.6124 0.0659611 81.7232 0.08524 81.8266 0.124022C81.93 0.162803 82.0239 0.220297 82.1027 0.293092C82.1815 0.365886 82.2435 0.452499 82.2853 0.547789C82.327 0.64308 82.3474 0.745107 82.3455 0.847817V1.6283C82.3474 1.73086 82.327 1.83273 82.2852 1.92784C82.2435 2.02295 82.1813 2.10935 82.1025 2.18188C82.0237 2.2544 81.9297 2.31158 81.8264 2.34999C81.723 2.3884 81.6123 2.40725 81.5008 2.40543H77.4786V11.1691C77.4757 11.3731 77.3853 11.5679 77.2271 11.7109C77.0689 11.8539 76.8557 11.9337 76.6339 11.9328H74.9592C74.7368 11.9346 74.5227 11.8552 74.3637 11.7121C74.2047 11.569 74.1138 11.3737 74.1109 11.1691V2.40543H70.0887C69.977 2.40724 69.8662 2.3884 69.7626 2.35003C69.659 2.31166 69.5649 2.25454 69.4857 2.18206C69.4066 2.10958 69.3441 2.02321 69.302 1.92809C69.2598 1.83297 69.2389 1.73102 69.2404 1.6283V0.847817C69.2384 0.745678 69.2587 0.64421 69.2999 0.549369C69.3412 0.454527 69.4026 0.368222 69.4806 0.29552C69.5586 0.222818 69.6516 0.165182 69.7541 0.125997C69.8567 0.0868112 69.9667 0.0668649 70.0777 0.0673287H81.5008Z" fill="#9A2C31"/>
<path d="M95.8861 0.847778V1.62827C95.8866 1.73044 95.8651 1.8317 95.8228 1.92618C95.7805 2.02067 95.7183 2.10652 95.6398 2.17877C95.5613 2.25102 95.468 2.30825 95.3653 2.34714C95.2626 2.38604 95.1525 2.40584 95.0414 2.40539H87.2091V4.81414H93.9518C94.1759 4.81675 94.39 4.89982 94.5485 5.04563C94.707 5.19144 94.7973 5.38844 94.8001 5.59462V6.37175C94.7973 6.57793 94.707 6.77494 94.5485 6.92074C94.39 7.06655 94.1759 7.14962 93.9518 7.15224H87.2091V9.59463H95.0232C95.1321 9.59418 95.2401 9.61365 95.3408 9.65191C95.4415 9.69017 95.533 9.74645 95.6099 9.8175C95.6868 9.88855 95.7475 9.97294 95.7887 10.0658C95.8298 10.1586 95.8505 10.258 95.8495 10.3583V11.1522C95.85 11.2546 95.8285 11.356 95.7863 11.4507C95.7441 11.5453 95.6819 11.6314 95.6034 11.7039C95.525 11.7764 95.4317 11.834 95.329 11.8732C95.2262 11.9125 95.1161 11.9327 95.0049 11.9327H84.6678C84.555 11.9323 84.4434 11.9113 84.3395 11.8708C84.2356 11.8304 84.1414 11.7714 84.0625 11.6972C83.9836 11.623 83.9214 11.5352 83.8797 11.4387C83.838 11.3423 83.8175 11.2392 83.8195 11.1354V0.830958C83.8224 0.626328 83.9132 0.431085 84.0722 0.287962C84.2312 0.14484 84.4454 0.0654938 84.6678 0.0672906H95.0414C95.1527 0.0672896 95.2628 0.0875015 95.3655 0.126766C95.4682 0.16603 95.5615 0.223574 95.64 0.296093C95.7185 0.368612 95.7806 0.454679 95.8229 0.549353C95.8651 0.644027 95.8866 0.745442 95.8861 0.847778Z" fill="#9A2C31"/>
<path d="M105.247 0.0672608C108.673 0.0672608 110.68 1.49031 110.68 4.67954C110.68 7.86877 108.673 9.28846 105.247 9.28846H100.921V11.1522C100.921 11.3592 100.832 11.5577 100.673 11.7041C100.514 11.8505 100.298 11.9327 100.073 11.9327H98.3761C98.1524 11.9301 97.9386 11.8469 97.7807 11.701C97.6228 11.5551 97.5333 11.3581 97.5315 11.1522V0.847749C97.529 0.746056 97.5487 0.64494 97.5893 0.550338C97.6299 0.455735 97.6907 0.369552 97.768 0.296848C97.8453 0.224143 97.9376 0.166383 98.0396 0.126958C98.1415 0.0875322 98.2509 0.0672361 98.3615 0.0672608H105.247ZM100.921 2.40536V6.95036H104.212C105.978 6.95036 107.287 6.61394 107.287 4.67954C107.287 2.74514 105.982 2.40536 104.212 2.40536H100.921Z" fill="#9A2C31"/>
<path d="M114.085 3.84859C113.975 4.11702 113.782 4.34995 113.53 4.51856C113.278 4.68718 112.977 4.78408 112.666 4.79729H112.3C111.529 4.79729 111.324 4.42386 111.47 3.67702L112.008 1.00923C112.098 0.743362 112.277 0.509953 112.518 0.341224C112.759 0.172495 113.051 0.0767689 113.353 0.0672607H114.085C115.043 0.0672607 115.467 0.55843 115.116 1.35574L114.085 3.84859Z" fill="#9A2C31"/>
<path d="M125.233 0C127.738 0 130.411 1.23802 130.411 3.47519C130.42 3.59172 130.402 3.70861 130.36 3.8187C130.317 3.9288 130.251 4.02977 130.165 4.11544C130.078 4.20111 129.974 4.26968 129.858 4.31693C129.742 4.36418 129.617 4.38913 129.49 4.39024H128.422C127.906 4.39024 127.5 4.16821 127.131 3.47519C126.762 2.78217 126.027 2.35492 124.919 2.35492H123.317C121.069 2.35492 120.129 3.00084 120.001 4.88141H124.828C125.052 4.88141 125.268 4.96364 125.427 5.11001C125.586 5.25638 125.676 5.4549 125.676 5.6619V6.35492C125.673 6.56111 125.583 6.75811 125.424 6.90392C125.266 7.04972 125.052 7.13279 124.828 7.13541H120.001C120.092 9.0328 121.069 9.67872 123.317 9.67872H125.105C126.202 9.67872 126.934 9.23802 127.299 8.54163C127.665 7.84525 128.075 7.62658 128.59 7.62658H129.658C129.785 7.62769 129.91 7.65264 130.026 7.69989C130.142 7.74714 130.247 7.81571 130.333 7.90138C130.419 7.98705 130.486 8.08803 130.528 8.19812C130.57 8.30821 130.588 8.4251 130.579 8.54163C130.579 10.7788 127.91 12.0168 125.402 12.0168H123.208C118.82 12.0168 116.538 10.1362 116.538 6.0185C116.538 1.90076 118.838 0 123.226 0H125.233Z" fill="#9A2C31"/>
<path d="M140.046 0.0672607C143.472 0.0672607 145.48 1.49031 145.48 4.67954C145.48 7.86877 143.472 9.28846 140.046 9.28846H135.735V11.1522C135.735 11.3592 135.646 11.5577 135.487 11.7041C135.327 11.8505 135.112 11.9327 134.887 11.9327H133.19C132.966 11.9301 132.753 11.8469 132.595 11.701C132.437 11.5551 132.347 11.3581 132.345 11.1522V0.847749C132.343 0.746338 132.363 0.645499 132.403 0.551118C132.443 0.456737 132.504 0.370706 132.581 0.298047C132.658 0.225388 132.75 0.167558 132.851 0.127933C132.952 0.0883086 133.062 0.067683 133.172 0.0672607H140.046ZM135.735 2.42218V6.95036H139.026C140.796 6.95036 142.105 6.61394 142.105 4.67954C142.105 2.74514 140.777 2.40536 139.011 2.40536L135.735 2.42218Z" fill="#9A2C31"/>
<path d="M149.864 9.43985C150.362 9.43985 150.841 9.5946 151.374 9.5946H151.557C152.738 9.5946 153.568 8.88139 154.011 7.44153H153.236C150.102 7.44153 148.683 6.2708 147.524 3.83177L146.105 0.847752C145.897 0.407046 146.142 0.0672646 146.603 0.0672646H148.5C148.758 0.0684773 149.01 0.140107 149.223 0.27307C149.437 0.406032 149.603 0.594339 149.7 0.814111L150.731 3.11857C151.301 4.3734 152.131 5.10343 153.715 5.10343H154.812L156.435 0.830932C156.513 0.610961 156.664 0.418994 156.867 0.282015C157.069 0.145037 157.314 0.0699342 157.565 0.0672646H159.393C159.493 0.0604313 159.593 0.0775228 159.683 0.116868C159.774 0.156212 159.851 0.216464 159.909 0.291729C159.966 0.366995 160.002 0.454698 160.011 0.546263C160.021 0.637827 160.004 0.730118 159.964 0.814111L157.038 8.55171C156.282 10.5534 154.863 11.9428 151.751 11.9428H149.553C149.328 11.9428 149.113 11.8606 148.954 11.7142C148.794 11.5678 148.705 11.3693 148.705 11.1623V10.2203C148.703 10.1173 148.724 10.015 148.766 9.91951C148.808 9.82399 148.87 9.73723 148.949 9.66438C149.028 9.59154 149.123 9.53412 149.226 9.49554C149.33 9.45697 149.441 9.43802 149.553 9.43985H149.864Z" fill="#9A2C31"/>
</svg>
