<svg width="113" height="30" viewBox="0 0 113 30" fill="none" xmlns="http://www.w3.org/2000/svg">
<path d="M11.7886 5.49491C12.2666 5.64262 12.6843 5.92832 12.9834 6.31219C13.3678 6.82726 13.5621 7.44865 13.5359 8.07954C13.5359 9.17978 13.2175 10.0002 12.5807 10.5409C11.9439 11.0815 11.0131 11.3508 9.78829 11.3487H0.335938V0.145437H9.37558C10.5804 0.145437 11.5056 0.418918 12.1513 0.965879C12.797 1.51284 13.1182 2.30008 13.1149 3.32761C13.1149 4.45631 12.6711 5.17874 11.7836 5.49491H11.7886ZM2.09162 9.84372H9.7733C10.4389 9.84372 10.9382 9.68564 11.271 9.36948C11.4424 9.2028 11.5762 9.00471 11.6643 8.78728C11.7525 8.56985 11.793 8.33764 11.7836 8.10483C11.7927 7.87164 11.7515 7.63916 11.6624 7.42167C11.5734 7.20418 11.4385 7.00629 11.266 6.84018C10.9215 6.51137 10.4206 6.34855 9.76832 6.34855H2.09162V9.84372ZM10.9432 2.14675C10.6103 1.81478 10.0834 1.64932 9.36227 1.65037H2.09162V4.84045H9.36227C10.1061 4.84045 10.627 4.71715 10.9182 4.47054C11.2094 4.22393 11.3575 3.83822 11.3575 3.32761C11.3575 2.81701 11.2194 2.41865 10.9432 2.14675ZM17.019 11.3487V0.145437H18.778V9.84372H27.7943V11.3487H17.019ZM42.968 11.3487L41.5734 8.86362H33.1728L31.7883 11.3487H29.8146L36.0152 0.145437H38.7527L44.95 11.3487H42.968ZM37.6128 1.48755H37.1651L33.965 7.35868H40.8179L37.6128 1.48755ZM59.706 11.3487L49.6828 1.61875V11.3487H47.9305V0.145437H50.4933L60.5996 9.95912V0.145437H62.3586V11.3487H59.706ZM77.494 1.86378C76.9781 1.62455 75.618 1.50494 73.4135 1.50494C71.0449 1.50494 69.6348 1.69832 69.1833 2.08509C68.7317 2.47187 68.5054 3.69858 68.5043 5.76523C68.5043 7.80658 68.734 9.02433 69.1933 9.41848C69.6526 9.81263 71.0593 10.0092 73.4135 10.0081C75.6047 10.0081 76.9415 9.89431 77.4241 9.66667C77.985 9.39319 78.2695 8.65653 78.2695 7.45353H80.0235C80.0235 9.23353 79.6352 10.3549 78.8586 10.8175C78.0848 11.2775 76.2676 11.5131 73.4102 11.5131C70.5046 11.5131 68.6679 11.1853 67.9002 10.5298C67.1325 9.87428 66.7475 8.2882 66.7453 5.77155C66.7453 3.24225 67.127 1.64774 67.8902 0.98801C68.6535 0.328285 70.4946 -0.00105135 73.4135 2.52121e-06C76.2836 2.52121e-06 78.1025 0.226059 78.8703 0.678171C79.638 1.13028 80.0224 2.25003 80.0235 4.0374H78.2695C78.2695 2.84125 78.011 2.11882 77.494 1.8701V1.86378ZM96.0027 11.3487V6.40862H85.873V11.3487H84.1207V0.145437H85.873V4.90052H95.996V0.145437H97.7533V11.3487H96.0027ZM112.999 9.84372V11.3487H101.721V0.145437H112.999V1.65037H103.475V4.92107H112.666V6.42601H103.475V9.84372H112.999Z" fill="black"/>
<path d="M113 15.5762H0V19.5762H113V15.5762Z" fill="#B79C7A"/>
<path d="M113 23.5762H0V27.5762H113V23.5762Z" fill="black"/>
</svg>
