<svg width="30" height="30" viewBox="0 0 30 30" fill="none" xmlns="http://www.w3.org/2000/svg">
<g clip-path="url(#clip0_108_790)">
<path d="M28.8999 17.6125L24.0624 22.5C23.9462 22.6172 23.8079 22.7101 23.6556 22.7736C23.5033 22.8371 23.3399 22.8697 23.1749 22.8697C23.0099 22.8697 22.8465 22.8371 22.6942 22.7736C22.5418 22.7101 22.4036 22.6172 22.2874 22.5C22.1702 22.3838 22.0772 22.2455 22.0138 22.0932C21.9503 21.9409 21.9176 21.7775 21.9176 21.6125C21.9176 21.4475 21.9503 21.2841 22.0138 21.1318C22.0772 20.9795 22.1702 20.8412 22.2874 20.725L26.7374 16.25L1.24988 16.25C0.918357 16.25 0.600413 16.1183 0.365995 15.8839C0.131574 15.6495 -0.00012088 15.3315 -0.000120851 15C-0.000120822 14.6685 0.131574 14.3505 0.365995 14.1161C0.600414 13.8817 0.918357 13.75 1.24988 13.75L26.8124 13.75L22.2874 9.225C22.0658 8.99253 21.9421 8.68367 21.9421 8.3625C21.9421 8.04132 22.0658 7.73247 22.2874 7.5C22.4036 7.38284 22.5418 7.28984 22.6942 7.22638C22.8465 7.16292 23.0099 7.13025 23.1749 7.13025C23.3399 7.13025 23.5033 7.16292 23.6556 7.22638C23.8079 7.28984 23.9462 7.38284 24.0624 7.5L28.8999 12.3125C29.6021 13.0156 29.9966 13.9687 29.9966 14.9625C29.9966 15.9563 29.6021 16.9094 28.8999 17.6125Z" fill="#9A2C31"/>
</g>
<defs>
<clipPath id="clip0_108_790">
<rect width="30" height="30" fill="white" transform="matrix(-1 -8.74228e-08 -8.74228e-08 1 30 0)"/>
</clipPath>
</defs>
</svg>
