<svg width="97" height="97" viewBox="0 0 97 97" fill="none" xmlns="http://www.w3.org/2000/svg">
<g clip-path="url(#clip0_3_5778)">
<path d="M86.1129 10.8871C71.5964 -3.62902 47.9773 -3.62902 33.461 10.8871C20.1569 24.1914 19.0486 45.1413 30.1314 59.7226L27.9292 61.925C25.4917 60.419 22.2463 60.7201 20.1345 62.8317L1.85209 81.1139C0.657592 82.3082 0 83.8962 0 85.5854C0 87.2744 0.657971 88.8624 1.85209 90.0567L6.85745 95.0622C8.04266 96.2474 9.63199 96.9715 11.3079 96.9988C13.0365 97.027 14.6663 96.3668 15.8856 95.1477L22.0592 88.9742C22.6266 88.4067 22.6266 87.4869 22.0592 86.9197L22.059 86.9195C21.4916 86.3521 20.5718 86.3521 20.0044 86.9195L13.8858 93.0381C13.2799 93.644 12.4806 94.0367 11.6254 94.0879C10.6344 94.1472 9.69261 93.7882 8.99751 93.093L3.96146 88.0566C3.35559 87.4508 2.96286 86.6509 2.91189 85.7955C2.85297 84.8049 3.21199 83.8636 3.90671 83.1687L22.1891 64.8863C23.5216 63.5539 25.6891 63.5537 27.0219 64.8859L27.0223 64.8863L32.0583 69.9224C32.664 70.5282 33.0569 71.3275 33.1081 72.1827C33.1674 73.1738 32.8084 74.1153 32.1133 74.8106L24.9646 81.9593C24.3972 82.5267 24.3972 83.4465 24.9646 84.0137L24.9648 84.0139C25.5322 84.5813 26.452 84.5813 27.0194 84.0139L34.1679 76.8652C35.3624 75.6709 36.02 74.0829 36.02 72.394C36.02 71.2004 35.6903 70.0582 35.0761 69.0689L37.2768 66.8682C43.9033 71.905 51.8444 74.4259 59.7865 74.4259C69.3203 74.4259 78.8542 70.7969 86.1125 63.5387C100.629 49.0227 100.629 25.403 86.1129 10.8871ZM33.1408 66.8953L30.1045 63.8589L31.9876 61.9758C32.4615 62.5072 32.9514 63.0293 33.461 63.5389C33.9706 64.0486 34.4926 64.5383 35.024 65.0119L33.1408 66.8953ZM84.0579 61.4839C70.6751 74.8671 48.899 74.8671 35.5158 61.4839C22.1329 48.1008 22.1329 26.325 35.5158 12.9419C42.2083 6.24925 50.996 2.90446 59.787 2.90446C68.5756 2.90446 77.3673 6.25096 84.0581 12.9419C97.441 26.325 97.441 48.1008 84.0579 61.4839Z" fill="white"/>
<path d="M57.442 64.861V9.239H61.689V64.861H57.442ZM31.138 39.105V35.132H88.13V39.105H31.138Z" fill="white"/>
</g>
<defs>
<clipPath id="clip0_3_5778">
<rect width="97" height="97" fill="white"/>
</clipPath>
</defs>
</svg>
