<svg width="438" height="36" viewBox="0 0 438 36" fill="none" xmlns="http://www.w3.org/2000/svg">
<g clip-path="url(#clip0_3_5031)">
<path d="M8.82 9.8798C10.73 1.9998 17.63 0.199796 24.79 0.199796H38.09C38.6983 0.194455 39.2839 0.43031 39.7187 0.855743C40.1535 1.28118 40.4021 1.86153 40.41 2.4698V33.1998C40.4021 33.8081 40.1535 34.3884 39.7187 34.8138C39.2839 35.2393 38.6983 35.4751 38.09 35.4698H2.32C1.70711 35.462 1.12152 35.2151 0.68811 34.7817C0.2547 34.3483 0.00777538 33.7627 0 33.1498L0 30.7898C0.00791109 30.1815 0.256468 29.6012 0.691272 29.1757C1.12607 28.7503 1.71171 28.5145 2.32 28.5198H4.23L8.82 9.8798ZM13.7 28.5198H31.14V7.1498H23.78C22.3708 7.10326 20.9925 7.56899 19.9004 8.46072C18.8082 9.35246 18.0762 10.6098 17.84 11.9998L13.7 28.5198Z" fill="#9A2C31"/>
<path d="M47.46 2.52005C47.46 1.90475 47.7044 1.31465 48.1395 0.879563C48.5746 0.444479 49.1647 0.200051 49.78 0.200051H54.36C54.6685 0.194751 54.9749 0.250774 55.2616 0.364866C55.5483 0.478958 55.8094 0.648849 56.0299 0.864678C56.2504 1.08051 56.4258 1.33798 56.546 1.62214C56.6661 1.90631 56.7287 2.21152 56.73 2.52005V33.1501C56.7194 33.7707 56.4648 34.3623 56.0212 34.7965C55.5776 35.2308 54.9807 35.4728 54.36 35.4701H49.78C49.1717 35.4754 48.586 35.2395 48.1512 34.8141C47.7164 34.3887 47.4679 33.8083 47.46 33.2001V2.52005Z" fill="#9A2C31"/>
<path d="M84.5399 35.4702C83.8809 35.4221 83.2492 35.1879 82.7182 34.7949C82.1871 34.4019 81.7785 33.8662 81.5399 33.2502L72.8498 9.0702V33.0702C72.8551 33.3787 72.7991 33.6852 72.685 33.9718C72.5709 34.2585 72.401 34.5196 72.1852 34.7401C71.9694 34.9606 71.7119 35.136 71.4278 35.2562C71.1436 35.3764 70.8384 35.4389 70.5298 35.4402H66.0998C65.7913 35.4389 65.4861 35.3764 65.2019 35.2562C64.9178 35.136 64.6603 34.9606 64.4445 34.7401C64.2286 34.5196 64.0588 34.2585 63.9447 33.9718C63.8306 33.6852 63.7745 33.3787 63.7798 33.0702V2.5702C63.7732 2.26551 63.8267 1.9625 63.9372 1.67848C64.0477 1.39446 64.213 1.135 64.4238 0.914909C64.6346 0.694819 64.8867 0.518419 65.1657 0.395787C65.4447 0.273154 65.7452 0.206691 66.0499 0.200195H76.0499C76.7262 0.237109 77.3753 0.478767 77.9111 0.893114C78.4469 1.30746 78.844 1.87491 79.0499 2.5202L86.2999 23.5202L93.5598 2.5202C93.7657 1.87491 94.1628 1.30746 94.6986 0.893114C95.2344 0.478767 95.8835 0.237109 96.5598 0.200195H106.56C106.865 0.206691 107.165 0.273154 107.444 0.395787C107.723 0.518419 107.975 0.694819 108.186 0.914909C108.397 1.135 108.562 1.39446 108.673 1.67848C108.783 1.9625 108.836 2.26551 108.83 2.5702V33.1002C108.835 33.4087 108.779 33.7152 108.665 34.0018C108.551 34.2885 108.381 34.5496 108.165 34.7701C107.949 34.9906 107.692 35.166 107.408 35.2862C107.124 35.4064 106.818 35.4689 106.51 35.4702H102.07C101.762 35.4689 101.457 35.4063 101.173 35.286C100.89 35.1657 100.633 34.9902 100.418 34.7695C100.203 34.5489 100.034 34.2877 99.921 34.0011C99.808 33.7145 99.7532 33.4082 99.7598 33.1002V9.1002L91.0898 33.2502C90.8512 33.8662 90.4426 34.4019 89.9115 34.7949C89.3805 35.1879 88.7487 35.4221 88.0898 35.4702H84.5399Z" fill="#9A2C31"/>
<path d="M133.51 2.52005C133.51 2.21538 133.57 1.9137 133.686 1.63223C133.803 1.35075 133.974 1.09499 134.189 0.879563C134.405 0.664131 134.66 0.493241 134.942 0.37665C135.223 0.260059 135.525 0.200051 135.83 0.200051H140.41C140.718 0.194751 141.025 0.250774 141.311 0.364866C141.598 0.478958 141.859 0.648849 142.08 0.864678C142.3 1.08051 142.476 1.33798 142.596 1.62214C142.716 1.90631 142.778 2.21152 142.78 2.52005V33.1501C142.769 33.7707 142.515 34.3623 142.071 34.7965C141.627 35.2308 141.031 35.4728 140.41 35.4701H135.83C135.221 35.4754 134.636 35.2395 134.201 34.8141C133.766 34.3887 133.518 33.8083 133.51 33.2001V2.52005Z" fill="#9A2C31"/>
<path d="M176 20.5601H159.1V33.2001C159.092 33.8066 158.845 34.3854 158.412 34.8106C157.98 35.2357 157.397 35.4727 156.79 35.4701H152.2C151.579 35.4728 150.982 35.2308 150.539 34.7965C150.095 34.3623 149.841 33.7707 149.83 33.1501V2.52005C149.831 2.21152 149.894 1.90631 150.014 1.62215C150.134 1.33798 150.31 1.08051 150.53 0.864679C150.751 0.64885 151.012 0.47896 151.298 0.364867C151.585 0.250775 151.892 0.194753 152.2 0.200052H156.79C157.094 0.200049 157.395 0.260129 157.676 0.376842C157.957 0.493555 158.212 0.664603 158.427 0.880167C158.642 1.09573 158.812 1.35156 158.927 1.63298C159.043 1.9144 159.101 2.21586 159.1 2.52005V13.6001H176V2.52005C176 2.21284 176.061 1.90869 176.18 1.62524C176.298 1.34179 176.472 1.08469 176.69 0.868866C176.909 0.653037 177.168 0.482777 177.453 0.367966C177.738 0.253155 178.043 0.196079 178.35 0.200052H182.94C183.248 0.19474 183.554 0.250826 183.84 0.365037C184.126 0.479248 184.387 0.649296 184.606 0.865259C184.826 1.08122 185.001 1.33877 185.12 1.62289C185.239 1.907 185.3 2.21199 185.3 2.52005V33.1501C185.292 33.7698 185.04 34.3614 184.598 34.7959C184.156 35.2304 183.56 35.4727 182.94 35.4701H178.35C178.046 35.4767 177.744 35.4231 177.461 35.3123C177.179 35.2016 176.92 35.0359 176.702 34.8249C176.483 34.6138 176.309 34.3615 176.188 34.0827C176.068 33.8038 176.004 33.5038 176 33.2001V20.5601Z" fill="#9A2C31"/>
<path d="M222.89 0.199909C223.196 0.195844 223.499 0.25315 223.781 0.368428C224.064 0.483707 224.321 0.654607 224.536 0.870989C224.752 1.08737 224.921 1.34483 225.036 1.62808C225.15 1.91133 225.206 2.2146 225.2 2.51991V4.83991C225.206 5.14475 225.15 5.44757 225.035 5.73028C224.921 6.01299 224.751 6.26981 224.536 6.4854C224.32 6.70099 224.063 6.87094 223.781 6.98511C223.498 7.09928 223.195 7.15533 222.89 7.14991H211.89V33.1999C211.882 33.8064 211.635 34.3853 211.202 34.8104C210.77 35.2356 210.187 35.4726 209.58 35.4699H205C204.392 35.4753 203.806 35.2394 203.371 34.814C202.937 34.3885 202.688 33.8082 202.68 33.1999V7.14991H191.68C191.375 7.15529 191.072 7.0993 190.788 6.98524C190.505 6.87118 190.248 6.7014 190.031 6.48595C189.815 6.2705 189.644 6.01378 189.529 5.73102C189.413 5.44826 189.356 5.14523 189.36 4.83991V2.51991C189.355 2.2163 189.41 1.91469 189.523 1.63277C189.636 1.35086 189.804 1.09432 190.017 0.878208C190.231 0.6621 190.485 0.490779 190.765 0.3743C191.046 0.257821 191.347 0.198531 191.65 0.199909H222.89Z" fill="#9A2C31"/>
<path d="M262.23 2.5198V4.8398C262.231 5.14352 262.172 5.4445 262.057 5.72536C261.941 6.00622 261.771 6.2614 261.556 6.47616C261.341 6.69093 261.086 6.86103 260.805 6.97665C260.525 7.09227 260.224 7.15112 259.92 7.1498H238.5V14.3098H256.94C257.553 14.3176 258.138 14.5645 258.572 14.9979C259.005 15.4313 259.252 16.0169 259.26 16.6298V18.9398C259.252 19.5527 259.005 20.1383 258.572 20.5717C258.138 21.0051 257.553 21.252 256.94 21.2598H238.5V28.5198H259.87C260.168 28.5185 260.463 28.5763 260.739 28.6901C261.014 28.8038 261.264 28.9711 261.474 29.1823C261.685 29.3935 261.851 29.6443 261.963 29.9203C262.076 30.1962 262.132 30.4918 262.13 30.7898V33.1498C262.131 33.454 262.072 33.7554 261.957 34.0369C261.841 34.3183 261.671 34.5741 261.457 34.7897C261.242 35.0052 260.987 35.1763 260.706 35.293C260.425 35.4097 260.124 35.4698 259.82 35.4698H231.55C231.241 35.4685 230.936 35.406 230.652 35.2858C230.368 35.1656 230.11 34.9902 229.894 34.7697C229.679 34.5492 229.509 34.2881 229.395 34.0014C229.281 33.7148 229.225 33.4083 229.23 33.0998V2.4698C229.238 1.86153 229.486 1.28118 229.921 0.855743C230.356 0.43031 230.942 0.194455 231.55 0.199796H259.92C260.224 0.199793 260.525 0.259873 260.806 0.376586C261.087 0.493299 261.342 0.664347 261.557 0.879911C261.771 1.09547 261.941 1.35131 262.057 1.63273C262.172 1.91414 262.231 2.2156 262.23 2.5198Z" fill="#9A2C31"/>
<path d="M287.83 0.200195C297.2 0.200195 302.69 4.4302 302.69 13.9102C302.69 23.3902 297.2 27.6102 287.83 27.6102H276V33.1502C276 33.7655 275.756 34.3556 275.321 34.7907C274.885 35.2258 274.295 35.4702 273.68 35.4702H269.04C268.428 35.4624 267.844 35.2151 267.412 34.7814C266.98 34.3478 266.735 33.7622 266.73 33.1502V2.5202C266.723 2.21791 266.777 1.91735 266.888 1.63614C266.999 1.35493 267.165 1.09876 267.377 0.882642C267.588 0.666529 267.841 0.494836 268.12 0.377644C268.398 0.260452 268.698 0.200122 269 0.200195H287.83ZM276 7.1502V20.6602H285C289.83 20.6602 293.41 19.6602 293.41 13.9102C293.41 8.1602 289.84 7.1502 285 7.1502H276Z" fill="#9A2C31"/>
<path d="M312 11.4402C311.7 12.2381 311.172 12.9305 310.483 13.4317C309.793 13.9329 308.972 14.221 308.12 14.2602H307.12C305.01 14.2602 304.45 13.1502 304.85 10.9302L306.32 3.0002C306.568 2.20991 307.055 1.5161 307.714 1.01455C308.374 0.513005 309.172 0.228458 310 0.200195H312C314.62 0.200195 315.78 1.6602 314.82 4.0302L312 11.4402Z" fill="#9A2C31"/>
<path d="M342.49 0C349.34 0 356.65 3.68 356.65 10.33C356.673 10.6764 356.625 11.0238 356.509 11.3511C356.394 11.6783 356.212 11.9785 355.976 12.2332C355.74 12.4878 355.455 12.6916 355.137 12.8321C354.82 12.9725 354.477 13.0467 354.13 13.05H351.21C349.8 13.05 348.69 12.39 347.68 10.33C346.67 8.27 344.66 7 341.63 7H337.25C331.1 7 328.53 8.92 328.18 14.51H341.38C341.995 14.51 342.585 14.7544 343.02 15.1895C343.456 15.6246 343.7 16.2147 343.7 16.83V18.89C343.692 19.5029 343.445 20.0885 343.012 20.5219C342.578 20.9553 341.993 21.2022 341.38 21.21H328.18C328.43 26.85 331.1 28.77 337.25 28.77H342.14C345.14 28.77 347.14 27.46 348.14 25.39C349.14 23.32 350.26 22.67 351.67 22.67H354.59C354.937 22.6733 355.28 22.7475 355.597 22.8879C355.915 23.0284 356.2 23.2322 356.436 23.4868C356.672 23.7415 356.854 24.0417 356.969 24.3689C357.085 24.6962 357.133 25.0436 357.11 25.39C357.11 32.04 349.81 35.72 342.95 35.72H336.95C324.95 35.72 318.71 30.13 318.71 17.89C318.71 5.65 325 0 337 0H342.49Z" fill="#9A2C31"/>
<path d="M383 0.200195C392.37 0.200195 397.86 4.4302 397.86 13.9102C397.86 23.3902 392.37 27.6102 383 27.6102H371.21V33.1502C371.21 33.7655 370.966 34.3556 370.53 34.7907C370.095 35.2258 369.505 35.4702 368.89 35.4702H364.25C363.638 35.4624 363.054 35.2151 362.622 34.7814C362.19 34.3478 361.945 33.7622 361.94 33.1502V2.5202C361.933 2.21875 361.987 1.91901 362.097 1.63846C362.208 1.35791 362.373 1.10218 362.583 0.886207C362.794 0.670229 363.045 0.49833 363.323 0.380545C363.6 0.26276 363.899 0.20145 364.2 0.200195H383ZM371.21 7.2002V20.6602H380.21C385.05 20.6602 388.63 19.6602 388.63 13.9102C388.63 8.1602 385 7.1502 380.17 7.1502L371.21 7.2002Z" fill="#9A2C31"/>
<path d="M409.85 28.0602C411.21 28.0602 412.52 28.5202 413.98 28.5202H414.48C417.71 28.5202 419.98 26.4002 421.19 22.1202H419.07C410.5 22.1202 406.62 18.6402 403.45 11.3902L399.57 2.52017C399 1.21017 399.67 0.200166 400.93 0.200166H406.12C406.825 0.203771 407.513 0.41669 408.097 0.811922C408.681 1.20715 409.135 1.7669 409.4 2.42017L412.22 9.27017C413.78 13.0002 416.05 15.1702 420.38 15.1702H423.38L427.82 2.47017C428.033 1.8163 428.446 1.24568 429 0.838513C429.554 0.431344 430.222 0.208102 430.91 0.200166H435.91C436.183 0.179855 436.456 0.230659 436.703 0.347611C436.95 0.464564 437.163 0.64366 437.32 0.867387C437.477 1.09111 437.574 1.35181 437.6 1.62399C437.626 1.89616 437.581 2.1705 437.47 2.42017L429.47 25.4202C427.4 31.3702 423.52 35.5002 415.01 35.5002H409C408.385 35.5002 407.795 35.2557 407.359 34.8207C406.924 34.3856 406.68 33.7955 406.68 33.1802V30.3802C406.675 30.074 406.731 29.7699 406.846 29.486C406.96 29.202 407.131 28.9441 407.347 28.7276C407.564 28.5111 407.822 28.3404 408.106 28.2257C408.39 28.1111 408.694 28.0547 409 28.0602H409.85Z" fill="#9A2C31"/>
</g>
<defs>
<clipPath id="clip0_3_5031">
<rect width="437.57" height="35.67" fill="white"/>
</clipPath>
</defs>
</svg>
